<svg xmlns="http://www.w3.org/2000/svg" width="912" height="1350.667" viewBox="0 0 684 1013" xmlns:v="https://vecta.io/nano"><path d="M260.6 3.2c-.3 1.3-2.8 6.3-5.6 11.1-4.9 8.5-45.3 86.2-99 190.2l-38.5 74L13.8 478C3.6 497 1 502.7 1 506.4c0 3.4 2.8 9.6 11.3 24.8 4.1 7.3 17.2 32.4 29.2 55.8l212.4 408.5c3.9 7.2 7.1 13.6 7.1 14.3 0 2.8 3.5.6 4.4-2.8.5-2.1 1.1-56 1.3-132.7l.4-129.2-12.9-23.3c-7.1-12.8-18-33.2-24.2-45.3l-18.6-35.1c-4-7.3-11-20.6-15.5-29.5-4.5-9-10.1-19.8-12.5-24s-10.3-19.3-17.7-33.5c-7.4-14.3-15.9-30.1-19-35.3l-5.5-9.3 4.3-7.7c2.3-4.2 8.8-16.6 14.5-27.6l21-39.5c5.9-10.7 14.2-26.5 18.5-35s12.1-23.4 17.5-33 13.7-25.4 18.5-35 13.9-26.6 20.1-37.7l11.4-20.2V164.8c0-99.5-.9-154.6-2.6-161.3-.8-3.1-3-3.3-3.8-.3zm157.7 1.5c-.4 2.1-.7 64-.6 137.5L418 276l10.9 19.2c5.9 10.6 14.8 27.2 19.6 36.8s13.1 25.4 18.5 35 13 24 17 32 11.4 22.1 16.5 31.5l41.1 77c1.1 1.8.4 3.4-5.8 14-3.9 6.6-9.4 16.9-12.3 23-2.8 6-11.3 22.2-18.7 36l-23.3 44c-5.4 10.4-11.8 22.4-14.3 26.5-2.4 4.1-9 16.7-14.7 28-5.6 11.3-15.8 30.4-22.5 42.5l-12.2 22-.1 128 .9 133.4c1.1 6.4 2.6 7.4 4.4 3 .7-1.7 3.4-6.6 6-10.8 6.3-10.4 12-21.2 40-76.1l33-63.5c4.8-8.8 45-86 89.3-171.6l83-159.5c3.5-5.6 8.3-15.4 9-18.5.9-3.6-1.3-9.4-7.1-19.2-7.7-12.9-8-13.4-87.2-166.7L467.3 87.5l-36.9-70c-2.3-3.9-5.2-9.1-6.5-11.8-1.3-2.6-2.9-4.7-3.6-4.7-.6 0-1.6 1.7-2 3.7zm-79.6 319.5c-1.3 1.8-7.8 13.9-14.4 26.8L307 383.5c-2.9 4.9-8.8 16.2-13.2 25s-13.5 26.1-20.3 38.5C256 479.1 241 508.9 241 511.4c0 1.1.8 3.4 1.7 5.1.9 1.6 7.9 15.1 15.5 29.9l17.7 33.5c2.1 3.6 9.5 17.4 16.4 30.6l16.4 31c2.2 3.8 9 16.6 15.2 28.2 12.8 24.7 15.7 29.3 18.1 29.3 2.2 0 7.8-8.6 15.5-24.1 3.2-6.3 11.3-21.5 18-33.9l19.3-36.6c3.9-7.8 9.2-17.7 11.8-22 2.5-4.4 11.6-21.3 20.1-37.7 15.3-29.3 15.5-29.8 15.1-35.1-.3-3.7-1.4-6.9-3.5-10.2-1.7-2.7-8-14.6-14-26.4l-19.8-37.5c-4.9-8.8-11.3-21.1-14.2-27.4-3-6.3-7.8-15.6-10.8-20.6-3-5.1-11.2-20.2-18.3-33.6-13.9-26.3-17.7-32.9-19.2-32.9-.5 0-2 1.5-3.3 3.2z"/></svg>