<svg version="1.1" viewBox="0 0 28 28" class="bb ns" xmlns="http://www.w3.org/2000/svg">
  <circle cx="14" cy="14" r="14" stroke="white" fill="rgb(204,194,192)" stroke-width="0" />
  <g transform="translate(2,2)">
    <path d="M12 2a9 9 0 0 0-9 9a8.99 8.99 0 0 0 4 7.47V22h2v-3h2v3h2v-3h2v3h2v-3.54c2.47-1.65 4-4.46 4-7.46a9 9 0 0 0-9-9m-4 9a2 2 0 0 1 2 2a2 2 0 0 1-2 2a2 2 0 0 1-2-2a2 2 0 0 1 2-2m8 0a2 2 0 0 1 2 2a2 2 0 0 1-2 2a2 2 0 0 1-2-2a2 2 0 0 1 2-2m-4 3l1.5 3h-3l1.5-3z" fill="#222"/>
  </g>
</svg>
 
