 <svg version="1.0" xmlns="http://www.w3.org/2000/svg" width="700.000000pt" height="1128.000000pt" viewBox="0 0 700.000000 1128.000000" preserveAspectRatio="xMidYMid meet">
<metadata>
Created by potrace 1.12, written by Peter Selinger 2001-2015
</metadata>
<g transform="translate(0.000000,1128.000000) scale(0.100000,-0.100000)" fill="#000000" stroke="none">
<path d="M2934 11188 c-8 -18 -27 -53 -41 -78 -14 -25 -61 -115 -105 -200 -44
-85 -87 -164 -94 -175 -8 -11 -14 -25 -14 -31 0 -6 -24 -54 -53 -105 -29 -52
-70 -128 -91 -169 -47 -94 -143 -278 -226 -435 -101 -192 -147 -280 -230 -440
-42 -82 -102 -197 -132 -255 -30 -58 -94 -181 -143 -275 -48 -93 -95 -183
-105 -200 -16 -28 -101 -189 -207 -395 -25 -47 -73 -139 -108 -205 -35 -66
-90 -172 -123 -235 -32 -63 -85 -164 -117 -225 -32 -60 -93 -177 -135 -260
-42 -82 -95 -184 -118 -226 -23 -42 -66 -126 -97 -185 -31 -60 -84 -163 -119
-229 -34 -66 -98 -187 -141 -270 -43 -82 -91 -175 -107 -205 -16 -30 -33 -62
-38 -70 -6 -8 -15 -26 -20 -40 -6 -14 -39 -79 -74 -145 -134 -252 -236 -457
-236 -476 0 -21 19 -63 107 -229 89 -169 178 -339 251 -480 35 -69 84 -163
109 -210 25 -47 82 -155 126 -240 45 -85 100 -191 123 -235 24 -44 70 -134
104 -200 34 -66 81 -156 104 -200 23 -44 75 -143 116 -220 40 -77 98 -187 128
-245 151 -289 185 -354 242 -465 34 -66 81 -156 105 -200 24 -44 71 -134 105
-200 33 -66 65 -127 70 -135 4 -8 22 -42 38 -75 17 -33 42 -80 55 -105 14 -25
57 -106 95 -180 37 -74 87 -170 110 -212 23 -42 68 -127 99 -188 32 -61 95
-182 140 -268 45 -86 110 -211 144 -277 83 -162 142 -275 223 -430 38 -71 100
-191 138 -265 39 -74 73 -139 78 -145 4 -5 24 -43 45 -83 20 -40 41 -70 46
-67 5 4 9 579 9 1458 l0 1452 -51 100 c-61 121 -118 228 -166 315 -20 36 -58
108 -86 160 -28 52 -70 131 -93 175 -23 44 -59 112 -79 150 -20 39 -49 95 -66
125 -17 30 -65 120 -106 200 -41 80 -79 150 -83 155 -4 6 -33 60 -66 120 -32
61 -77 146 -101 190 -24 44 -61 116 -84 160 -22 44 -51 98 -64 120 -13 22 -43
78 -67 125 -73 142 -160 304 -168 315 -27 35 -90 172 -90 196 0 15 15 54 34
86 38 64 122 222 186 348 23 44 61 116 85 160 24 44 62 116 84 160 23 44 61
116 86 160 24 44 62 116 85 160 22 44 60 116 84 160 24 44 60 112 80 150 20
39 58 109 84 157 26 49 73 136 104 195 31 60 68 128 82 153 14 25 43 81 66
125 22 44 60 116 85 160 53 94 60 108 153 288 l72 139 0 1493 c0 1006 -3 1496
-10 1500 -6 4 -17 -9 -26 -27z"></path>
<path d="M3990 9721 l0 -1500 72 -138 c87 -169 141 -272 177 -338 15 -27 54
-99 86 -160 32 -60 78 -146 101 -190 24 -44 52 -98 63 -120 11 -22 50 -94 86
-160 35 -66 81 -151 101 -190 20 -38 48 -92 63 -120 37 -70 122 -227 163 -305
19 -36 61 -114 93 -175 32 -60 71 -135 88 -165 30 -55 77 -145 170 -320 121
-229 119 -221 92 -268 -8 -15 -20 -38 -25 -52 -6 -14 -22 -43 -35 -65 -13 -22
-41 -74 -63 -115 -21 -41 -53 -102 -72 -135 -18 -33 -62 -116 -98 -185 -35
-69 -72 -138 -82 -155 -10 -16 -40 -73 -68 -125 -27 -52 -71 -133 -96 -180
-26 -47 -65 -121 -87 -165 -22 -44 -60 -116 -85 -160 -24 -44 -53 -98 -64
-120 -11 -22 -24 -47 -30 -55 -5 -8 -15 -26 -20 -40 -6 -14 -22 -45 -36 -70
-14 -25 -39 -72 -56 -105 -17 -33 -48 -89 -68 -125 -21 -36 -70 -128 -110
-205 -41 -77 -85 -162 -100 -190 -15 -27 -57 -107 -93 -176 l-67 -127 0 -1457
c0 -1104 3 -1456 12 -1453 12 4 54 78 146 258 65 126 155 297 226 430 25 47
64 121 87 165 22 44 63 123 90 175 28 52 93 178 146 280 122 237 208 403 266
510 74 139 248 473 358 685 34 66 90 174 125 240 35 66 82 156 104 200 23 44
71 136 107 205 36 69 98 188 138 265 40 77 96 185 125 240 151 285 183 347
220 420 22 44 61 118 86 165 25 47 82 155 126 240 45 85 109 209 144 275 34
66 90 174 124 240 34 66 81 156 104 200 118 223 176 340 176 355 0 16 -53 123
-194 390 -36 69 -93 179 -127 245 -33 66 -80 156 -104 200 -23 44 -70 134
-104 200 -79 154 -170 328 -251 480 -35 66 -69 131 -77 145 -7 14 -13 28 -13
32 0 3 -16 35 -36 70 -20 34 -78 144 -129 243 -51 99 -105 200 -119 225 -14
25 -31 56 -37 70 -6 14 -16 34 -22 45 -6 11 -30 56 -54 100 -23 44 -47 91 -53
105 -5 14 -14 32 -20 40 -5 8 -28 51 -50 95 -23 44 -61 116 -85 160 -24 44
-80 152 -125 240 -45 88 -102 198 -127 245 -24 47 -72 137 -104 200 -33 63
-89 169 -124 235 -35 66 -92 174 -125 240 -34 66 -90 174 -125 240 -66 125
-136 258 -161 310 -8 17 -19 37 -24 45 -5 8 -28 51 -50 95 -22 44 -78 152
-125 240 -47 88 -103 196 -125 240 -23 44 -60 116 -83 160 -24 44 -60 113 -81
153 -20 39 -42 72 -47 72 -5 0 -9 -579 -9 -1499z"></path>
<path d="M3453 7658 c-7 -12 -89 -171 -225 -438 -36 -69 -111 -215 -167 -325
-57 -110 -142 -276 -190 -370 -48 -93 -131 -255 -185 -360 -181 -349 -286
-559 -286 -570 0 -6 22 -54 49 -105 60 -116 159 -309 230 -450 29 -58 57 -112
62 -120 4 -8 19 -35 32 -60 13 -25 77 -148 142 -275 232 -448 444 -861 499
-972 41 -82 54 -97 79 -87 10 4 75 127 145 272 7 15 17 34 22 42 5 8 36 69 70
135 33 66 65 127 70 135 6 8 15 26 20 40 10 23 78 157 305 595 48 94 133 258
188 365 55 107 120 233 144 280 24 47 48 92 53 100 5 8 19 36 31 62 l22 47
-35 68 c-19 37 -98 192 -175 343 -77 151 -171 334 -208 405 -37 72 -105 202
-150 290 -192 374 -291 565 -350 679 -35 66 -82 158 -105 204 -30 60 -46 82
-60 82 -10 0 -22 -6 -27 -12z"></path>
</g>
</svg>