<?xml version="1.0" encoding="UTF-8"?>
<!DOCTYPE svg  PUBLIC '-//W3C//DTD SVG 20010904//EN'  'http://www.w3.org/TR/2001/REC-SVG-20010904/DTD/svg10.dtd'>
<svg width="1059pt" height="773pt" version="1.0" viewBox="0 0 1059 773" xmlns="http://www.w3.org/2000/svg">
<metadata>Created by potrace 1.16, written by Peter Selinger 2001-2019</metadata>
<g transform="translate(0 773) scale(.1 -.1)">
<path d="m3580 7644c-674-121-1356-402-1953-807-137-92-178-136-260-278-402-697-780-1725-1002-2724-155-696-247-1325-321-2182l-16-193 30-37c59-74 319-320 445-420 415-331 774-531 1271-708 400-142 907-250 1271-270l110-7 150 202c177 239 215 294 215 313 0 15-77 52-208 102-93 35-448 210-617 304-342 192-697 463-996 761-166 166-193 206-84 125 308-228 857-522 1260-675 578-220 1238-354 1970-400 205-13 704-13 910 0 748 47 1438 190 2012 416 379 149 885 420 1184 635 60 43 106 72 102 64-19-33-155-175-262-272-289-264-558-465-842-629-163-93-552-287-669-333-144-56-200-83-200-98 0-19 41-79 216-313l149-200h40c128 0 508 53 751 105 453 97 994 305 1349 518 140 84 358 237 511 358 127 102 387 347 446 422l30 37-16 193c-74 857-161 1450-317 2162-212 965-579 1979-965 2670-132 236-145 250-389 410-397 260-881 488-1326 624-235 72-560 139-717 148-81 5-95 3-114-13-21-19-98-175-98-200 0-14 17-19 205-69 138-37 435-137 585-197 289-115 616-293 878-475 119-83 385-293 477-377l50-46-55 24c-30 13-136 63-235 111-443 213-671 310-1005 423-733 249-1388 352-2230 352-906 0-1617-123-2425-420-223-82-382-151-725-315-113-54-248-118-300-142-92-43-94-43-60-14 97 85 405 326 508 398 432 303 966 550 1481 684 156 40 191 53 191 68 0 19-73 168-93 189-18 19-30 22-91 21-39 0-132-12-206-25zm260-3333c291-27 563-271 679-610 42-122 54-200 54-346 0-118-4-155-25-235-86-322-311-573-598-670-83-27-232-37-326-21-182 32-375 158-509 331-150 195-227 482-196 725 36 278 165 515 364 673 118 94 216 135 355 152 93 10 95 10 202 1zm3200-12c72-16 203-84 284-149 150-119 279-322 333-525 36-136 39-355 6-485-105-418-442-720-803-720-134 0-287 46-400 118-78 51-219 195-274 279-59 91-111 214-139 323-32 127-29 339 6 471 48 182 125 330 238 453 117 128 292 226 444 250 44 6 253-4 305-15z"/>
</g>
</svg>
