<svg xmlns="http://www.w3.org/2000/svg" width="1458.667" height="1466.667" viewBox="0 0 1094 1100" xmlns:v="https://vecta.io/nano"><path d="M548.9 5.5c-2.1 1.1-4.8 6.4-13.6 27.2L461 214.5l-73.4 177.1-3.7 8-17.7 6.5L1.3 541.8c-.9 2.2 2.6 5 13.6 10.6 18.7 9.5 43.1 19.7 152.6 63.8l221 91.2 8 3.7 84.6 229.3 57.7 153.3c5.4 2.1 16.6-22.5 63.3-138.7l63.1-153.1 43.3-103.6L899.3 628l191.4-71.7c2.2-5.7-25.6-18.1-177.2-79l-120.1-49.8-98.1-41-70.4-191L553 4.3c-.8-.1-2.7.4-4.1 1.2zm-1.1 316.7l-1 220.4c-1.3 1.2-12.6-9.5-77.4-73.4l-63.2-62.3 7.8-19.7L546.5 55.5l.8 23.5c.4 12.9.6 122.4.5 243.2zm154.4 93.2c14 5.1 82.2 32.1 216.5 85.9l121.3 48.5-26.3.6c-44.5 1.2-460.5 1.2-461.6.1-.7-.7 3.6-6.1 13.6-17 18.4-20 88.1-89.8 102.8-103 11.1-9.9 22-18.5 23.6-18.5.4 0 5 1.5 10.1 3.4zm-267.4 132l105.7 1.8c.7.7-35.1 37.6-88.8 91.4l-47.9 48.1-4.7-1.8-343-137.5c-1.4-1.3 5-1.6 45.5-2.3 71.9-1.3 219.4-1.1 333.2.3zM627.1 633l58.8 58.5-35.7 89.5-104.3 258c-3.3 0-3.5-350.7-.3-463.8l.6-21.2 11.1 10.2c6.1 5.7 37.5 36.6 69.8 68.8z"/></svg>